<svg width="89" height="40" viewBox="0 0 89 40" fill="none" xmlns="http://www.w3.org/2000/svg">
<path d="M14.6377 17.7197V12.09H27.5587V23.6263C25.0853 25.3122 22.8949 26.4627 20.9875 27.078C19.0924 27.6809 16.8404 27.9824 14.2316 27.9824C11.0198 27.9824 8.39868 27.4348 6.36823 26.3397C4.35009 25.2445 2.7811 23.614 1.66128 21.4483C0.553759 19.2825 0 16.7968 0 13.9912C0 11.0379 0.609135 8.47225 1.82741 6.2942C3.04568 4.10384 4.83001 2.44262 7.18041 1.31052C9.01397 0.436841 11.4813 0 14.5823 0C17.5726 0 19.8061 0.270718 21.2828 0.812155C22.7718 1.35359 24.0024 2.19651 24.9745 3.34091C25.959 4.473 26.6973 5.91273 27.1896 7.66009L19.1231 9.09982C18.7909 8.07848 18.2248 7.29709 17.425 6.75565C16.6374 6.21421 15.6283 5.94349 14.3977 5.94349C12.5642 5.94349 11.0998 6.58337 10.0046 7.86313C8.92167 9.13059 8.38022 11.1425 8.38022 13.8989C8.38022 16.8276 8.92783 18.9195 10.023 20.1747C11.1306 21.4298 12.6688 22.0574 14.6377 22.0574C15.5729 22.0574 16.4651 21.922 17.3142 21.6513C18.1633 21.3806 19.1355 20.9191 20.2307 20.2669V17.7197H14.6377Z" fill="currentColor"/>
<path d="M50.5397 16.4646L57.8678 18.6796C57.3756 20.7346 56.6003 22.4512 55.542 23.8294C54.4837 25.2076 53.167 26.2474 51.5919 26.9488C50.0291 27.6502 48.0355 28.0009 45.6113 28.0009C42.6702 28.0009 40.2644 27.5763 38.394 26.7273C36.5358 25.8659 34.9299 24.3585 33.5763 22.205C32.2226 20.0516 31.5458 17.2952 31.5458 13.9358C31.5458 9.45668 32.7333 6.01733 35.1083 3.61778C37.4956 1.20593 40.8674 0 45.2237 0C48.6324 0 51.3089 0.689101 53.2532 2.0673C55.2098 3.4455 56.6619 5.56203 57.6094 8.41687L50.226 10.0596C49.9675 9.23518 49.6968 8.63222 49.4138 8.25075C48.9462 7.61087 48.3739 7.11866 47.6971 6.77411C47.0203 6.42956 46.2635 6.25728 45.4267 6.25728C43.5316 6.25728 42.0795 7.02022 41.0705 8.54608C40.3075 9.67818 39.926 11.4563 39.926 13.8805C39.926 16.883 40.3813 18.9441 41.292 20.0639C42.2026 21.1714 43.4824 21.7251 45.1314 21.7251C46.7311 21.7251 47.9371 21.276 48.7493 20.3777C49.5737 19.4794 50.1706 18.175 50.5397 16.4646Z" fill="currentColor"/>
<path d="M75.5512 17.7197V12.09H88.4723V23.6263C85.9988 25.3122 83.8084 26.4627 81.901 27.078C80.0059 27.6809 77.7539 27.9824 75.1451 27.9824C71.9333 27.9824 69.3122 27.4348 67.2817 26.3397C65.2636 25.2445 63.6946 23.614 62.5748 21.4483C61.4673 19.2825 60.9135 16.7968 60.9135 13.9912C60.9135 11.0379 61.5226 8.47225 62.7409 6.2942C63.9592 4.10384 65.7435 2.44262 68.0939 1.31052C69.9275 0.436841 72.3948 0 75.4958 0C78.4861 0 80.7196 0.270718 82.1963 0.812155C83.6853 1.35359 84.9159 2.19651 85.888 3.34091C86.8725 4.473 87.6108 5.91273 88.1031 7.66009L80.0367 9.09982C79.7044 8.07848 79.1383 7.29709 78.3385 6.75565C77.5509 6.21421 76.5418 5.94349 75.3112 5.94349C73.4777 5.94349 72.0133 6.58337 70.9181 7.86313C69.8352 9.13059 69.2937 11.1425 69.2937 13.8989C69.2937 16.8276 69.8413 18.9195 70.9365 20.1747C72.0441 21.4298 73.5823 22.0574 75.5512 22.0574C76.4864 22.0574 77.3786 21.922 78.2277 21.6513C79.0768 21.3806 80.049 20.9191 81.1442 20.2669V17.7197H75.5512Z" fill="currentColor"/>
<path d="M0 35.0835H4.54056V36.2772H3.01715V39.9176H1.52341V36.2772H0V35.0835Z" fill="currentColor"/>
<path d="M5.22643 35.0835H6.72017V36.7751H8.35239V35.0835H9.85273V39.9176H8.35239V37.9622H6.72017V39.9176H5.22643V35.0835Z" fill="currentColor"/>
<path d="M10.9046 35.0835H12.4016V39.9176H10.9046V35.0835Z" fill="currentColor"/>
<path d="M13.4865 35.0835H14.8813L16.7015 37.7578V35.0835H18.1095V39.9176H16.7015L14.8912 37.2631V39.9176H13.4865V35.0835Z" fill="currentColor"/>
<path d="M19.1086 35.0835H20.6024V36.9103L22.1686 35.0835H24.1537L22.3929 36.907L24.2328 39.9176H22.3929L21.374 37.9292L20.6024 38.7371V39.9176H19.1086V35.0835Z" fill="currentColor"/>
<path d="M29.4131 38.1666V37.1609H31.7213V39.2218C31.2794 39.523 30.8881 39.7285 30.5474 39.8384C30.2089 39.9461 29.8066 40 29.3405 40C28.7668 40 28.2986 39.9022 27.9358 39.7065C27.5753 39.5109 27.295 39.2196 27.095 38.8327C26.8971 38.4458 26.7982 38.0018 26.7982 37.5006C26.7982 36.973 26.907 36.5146 27.1247 36.1255C27.3423 35.7342 27.6611 35.4375 28.0809 35.2352C28.4085 35.0791 28.8492 35.0011 29.4032 35.0011C29.9374 35.0011 30.3364 35.0495 30.6002 35.1462C30.8662 35.2429 31.086 35.3935 31.2597 35.5979C31.4355 35.8002 31.5674 36.0574 31.6553 36.3695L30.2144 36.6267C30.155 36.4443 30.0539 36.3047 29.911 36.208C29.7703 36.1112 29.5901 36.0629 29.3702 36.0629C29.0427 36.0629 28.7811 36.1772 28.5854 36.4058C28.392 36.6322 28.2953 36.9916 28.2953 37.4841C28.2953 38.0073 28.3931 38.381 28.5887 38.6052C28.7866 38.8294 29.0614 38.9415 29.4131 38.9415C29.5802 38.9415 29.7395 38.9173 29.8912 38.869C30.0429 38.8206 30.2166 38.7382 30.4122 38.6217V38.1666H29.4131Z" fill="currentColor"/>
<path d="M32.6083 35.0835H34.102V38.7272H36.4333V39.9176H32.6083V35.0835Z" fill="currentColor"/>
<path d="M36.9246 37.5038C36.9246 36.7147 37.1445 36.1002 37.5841 35.6606C38.0238 35.2209 38.636 35.0011 39.4208 35.0011C40.2254 35.0011 40.8453 35.2176 41.2805 35.6507C41.7158 36.0816 41.9334 36.6861 41.9334 37.4643C41.9334 38.0292 41.8378 38.4931 41.6466 38.8558C41.4575 39.2163 41.1827 39.4977 40.8222 39.6999C40.4639 39.9 40.0165 40 39.4801 40C38.935 40 38.4832 39.9132 38.1249 39.7395C37.7688 39.5658 37.4797 39.2911 37.2577 38.9152C37.0357 38.5392 36.9246 38.0688 36.9246 37.5038ZM38.4184 37.5104C38.4184 37.9985 38.5085 38.3491 38.6888 38.5623C38.8712 38.7756 39.1185 38.8822 39.4307 38.8822C39.7516 38.8822 40 38.7778 40.1759 38.5689C40.3518 38.3601 40.4397 37.9853 40.4397 37.4445C40.4397 36.9894 40.3474 36.6575 40.1627 36.4487C39.9803 36.2376 39.7319 36.1321 39.4175 36.1321C39.1163 36.1321 38.8745 36.2387 38.6921 36.452C38.5096 36.6652 38.4184 37.018 38.4184 37.5104Z" fill="currentColor"/>
<path d="M42.7413 35.0835H45.5375C46.0036 35.0835 46.3608 35.1989 46.6092 35.4298C46.8598 35.6606 46.9851 35.9464 46.9851 36.2871C46.9851 36.5729 46.8961 36.818 46.718 37.0224C46.5993 37.1587 46.4256 37.2664 46.197 37.3456C46.5443 37.4291 46.7993 37.5731 46.962 37.7775C47.1269 37.9798 47.2093 38.2348 47.2093 38.5425C47.2093 38.7931 47.1511 39.0185 47.0346 39.2185C46.9181 39.4186 46.7587 39.5768 46.5564 39.6933C46.4311 39.7659 46.2421 39.8186 45.9893 39.8516C45.6529 39.8956 45.4298 39.9176 45.3199 39.9176H42.7413V35.0835ZM44.2482 36.9796H44.8978C45.1308 36.9796 45.2924 36.94 45.3825 36.8609C45.4749 36.7795 45.521 36.663 45.521 36.5113C45.521 36.3706 45.4749 36.2607 45.3825 36.1816C45.2924 36.1024 45.1341 36.0629 44.9077 36.0629H44.2482V36.9796ZM44.2482 38.8789H45.0099C45.2671 38.8789 45.4485 38.8338 45.554 38.7437C45.6595 38.6514 45.7123 38.5283 45.7123 38.3744C45.7123 38.2315 45.6595 38.1172 45.554 38.0314C45.4507 37.9435 45.2682 37.8995 45.0066 37.8995H44.2482V38.8789Z" fill="currentColor"/>
<path d="M50.9684 39.1196H49.2669L49.0328 39.9176H47.5061L49.323 35.0835H50.9519L52.7688 39.9176H51.2058L50.9684 39.1196ZM50.6551 38.0743L50.121 36.3366L49.5901 38.0743H50.6551Z" fill="currentColor"/>
<path d="M53.2502 35.0835H54.744V38.7272H57.0752V39.9176H53.2502V35.0835Z" fill="currentColor"/>
<path d="M57.6688 38.5722H59.1032V39.9176H57.6688V38.5722Z" fill="currentColor"/>
<path d="M61.7609 35.0835H63.1788L63.6899 37.7841L64.4351 35.0835H65.8497L66.5982 37.7841L67.1093 35.0835H68.5206L67.4556 39.9176H65.9915L65.1441 36.874L64.2999 39.9176H62.8359L61.7609 35.0835Z" fill="currentColor"/>
<path d="M69.0086 35.0835H73.0117V36.1156H70.5057V36.8839H72.8304V37.8699H70.5057V38.8228H73.0843V39.9176H69.0086V35.0835Z" fill="currentColor"/>
<path d="M76.1674 35.0835H78.3865C78.824 35.0835 79.1768 35.1429 79.445 35.2616C79.7154 35.3803 79.9385 35.5507 80.1144 35.7727C80.2903 35.9947 80.4178 36.253 80.4969 36.5476C80.576 36.8422 80.6156 37.1543 80.6156 37.4841C80.6156 38.0007 80.5563 38.4018 80.4375 38.6876C80.321 38.9712 80.1584 39.2097 79.9495 39.4032C79.7407 39.5944 79.5165 39.7219 79.2768 39.7857C78.9493 39.8736 78.6525 39.9176 78.3865 39.9176H76.1674V35.0835ZM77.6611 36.1783V38.8195H78.0271C78.3393 38.8195 78.5613 38.7855 78.6932 38.7173C78.8251 38.647 78.9284 38.5261 79.0032 38.3546C79.0779 38.1809 79.1153 37.9006 79.1153 37.5137C79.1153 37.0015 79.0317 36.6509 78.8647 36.4619C78.6976 36.2728 78.4206 36.1783 78.0337 36.1783H77.6611Z" fill="currentColor"/>
<path d="M81.2157 37.5038C81.2157 36.7147 81.4356 36.1002 81.8752 35.6606C82.3149 35.2209 82.9271 35.0011 83.7119 35.0011C84.5165 35.0011 85.1364 35.2176 85.5716 35.6507C86.0069 36.0816 86.2245 36.6861 86.2245 37.4643C86.2245 38.0292 86.1289 38.4931 85.9377 38.8558C85.7486 39.2163 85.4738 39.4977 85.1133 39.6999C84.755 39.9 84.3076 40 83.7712 40C83.2261 40 82.7743 39.9132 82.416 39.7395C82.0599 39.5658 81.7708 39.2911 81.5488 38.9152C81.3268 38.5392 81.2157 38.0688 81.2157 37.5038ZM82.7095 37.5104C82.7095 37.9985 82.7996 38.3491 82.9799 38.5623C83.1623 38.7756 83.4096 38.8822 83.7218 38.8822C84.0427 38.8822 84.2911 38.7778 84.467 38.5689C84.6429 38.3601 84.7308 37.9853 84.7308 37.4445C84.7308 36.9894 84.6385 36.6575 84.4538 36.4487C84.2714 36.2376 84.0229 36.1321 83.7086 36.1321C83.4074 36.1321 83.1656 36.2387 82.9832 36.452C82.8007 36.6652 82.7095 37.018 82.7095 37.5104Z" fill="currentColor"/>
<path d="M86.9434 38.5722H88.3778V39.9176H86.9434V38.5722Z" fill="currentColor"/>
</svg>
