<svg width="65" height="59" viewBox="0 0 65 59" fill="none" xmlns="http://www.w3.org/2000/svg">
<path d="M65 0L0.380951 59L65 59V0Z" fill="currentColor"/>
<path d="M36 46V38H39.125C39.4605 38 39.7681 38.0751 40.0478 38.2254C40.3274 38.3756 40.5721 38.5746 40.7818 38.8225C40.9915 39.0704 41.1523 39.3484 41.2642 39.6563C41.376 39.9643 41.432 40.2798 41.432 40.6028C41.432 41.046 41.3376 41.4704 41.1488 41.8761C40.9671 42.2742 40.7049 42.5972 40.3624 42.8451C40.0268 43.093 39.6353 43.2169 39.1879 43.2169H37.1745V46H36ZM37.1745 42.1014H39.1145C39.3382 42.1014 39.5339 42.0376 39.7017 41.9099C39.8695 41.7746 39.9988 41.5944 40.0897 41.369C40.1876 41.1437 40.2365 40.8883 40.2365 40.6028C40.2365 40.3099 40.1806 40.0507 40.0687 39.8254C39.9569 39.6 39.8101 39.4272 39.6283 39.307C39.4535 39.1793 39.2613 39.1155 39.0515 39.1155H37.1745V42.1014Z" fill="white"/>
<path d="M42.5335 46V38H45.1761C45.9801 38 46.6512 38.1803 47.1895 38.5408C47.7278 38.8939 48.1298 39.3746 48.3954 39.9831C48.6681 40.584 48.8044 41.2526 48.8044 41.9887C48.8044 42.8 48.6541 43.5061 48.3535 44.107C48.0599 44.708 47.6404 45.1737 47.0951 45.5042C46.5498 45.8347 45.9102 46 45.1761 46H42.5335ZM47.609 41.9887C47.609 41.4254 47.5111 40.9296 47.3153 40.5014C47.1266 40.0657 46.8504 39.7277 46.4869 39.4873C46.1304 39.2394 45.6934 39.1155 45.1761 39.1155H43.708V44.8845H45.1761C45.7004 44.8845 46.1409 44.7568 46.4974 44.5014C46.8609 44.246 47.1371 43.9005 47.3258 43.4648C47.5146 43.0291 47.609 42.5371 47.609 41.9887Z" fill="white"/>
<path d="M50.0399 46V38H55V39.1155H51.2144V41.5042H54.3813V42.5521H51.2144V46H50.0399Z" fill="white"/>
</svg>
