<?xml version="1.0" encoding="UTF-8"?>
<svg id="_Слой_1" data-name="Слой 1" xmlns="http://www.w3.org/2000/svg" viewBox="0 0 663.19 185.32">
  <defs>
    <style>
      .cls-1 {
        fill: #002f72;
      }

      .cls-2 {
        fill: #878787;
      }
    </style>
  </defs>
  <g>
    <path class="cls-1" d="M52.85,100.16c-7.66,0-14.71-1.22-21.17-3.67-6.46-2.44-12.03-5.92-16.74-10.44-4.7-4.52-8.37-9.82-11-15.91-2.63-6.09-3.94-12.77-3.94-20.06s1.31-13.97,3.94-20.06c2.63-6.09,6.34-11.39,11.14-15.91,4.79-4.52,10.42-8,16.88-10.44,6.45-2.44,13.56-3.67,21.3-3.67,8.58,0,16.3,1.43,23.17,4.29,6.87,2.86,12.66,7.01,17.36,12.45l-14.25,13.28c-3.6-3.78-7.47-6.57-11.62-8.37-4.15-1.8-8.72-2.7-13.7-2.7-4.61,0-8.85,.76-12.73,2.28-3.87,1.52-7.22,3.67-10.03,6.43-2.81,2.77-4.98,6.04-6.5,9.82-1.52,3.78-2.28,7.98-2.28,12.59s.76,8.56,2.28,12.38c1.52,3.83,3.69,7.12,6.5,9.89,2.81,2.77,6.13,4.93,9.96,6.5,3.82,1.57,8.04,2.35,12.66,2.35s8.74-.74,12.93-2.21c4.2-1.47,8.28-3.92,12.24-7.33l12.73,16.19c-5.35,4.06-11.48,7.12-18.4,9.2-6.92,2.08-13.83,3.11-20.75,3.11Zm18.68-15.22V48.56h20.47v39.29l-20.47-2.91Z"/>
    <path class="cls-1" d="M126.58,98.5V1.66h22.55V80.24h48.28v18.26H126.58Z"/>
    <path class="cls-1" d="M269.34,100.16c-7.66,0-14.71-1.25-21.17-3.74-6.46-2.49-12.08-5.99-16.88-10.51-4.8-4.52-8.51-9.82-11.14-15.91-2.63-6.09-3.94-12.73-3.94-19.92s1.31-13.95,3.94-19.99c2.63-6.04,6.34-11.32,11.14-15.84,4.79-4.52,10.4-8.02,16.81-10.51,6.41-2.49,13.44-3.73,21.1-3.73s14.69,1.22,21.1,3.67c6.41,2.44,12.01,5.93,16.81,10.44,4.79,4.52,8.51,9.82,11.14,15.91,2.63,6.09,3.94,12.77,3.94,20.06s-1.31,13.86-3.94,19.99c-2.63,6.13-6.34,11.46-11.14,15.98-4.8,4.52-10.4,8-16.81,10.44-6.41,2.44-13.4,3.67-20.96,3.67Zm-.14-18.95c4.33,0,8.32-.76,11.97-2.28,3.64-1.52,6.85-3.69,9.62-6.5,2.77-2.81,4.91-6.09,6.43-9.82,1.52-3.74,2.28-7.91,2.28-12.52s-.76-8.78-2.28-12.52c-1.52-3.74-3.67-7.01-6.43-9.82-2.77-2.81-5.97-4.98-9.62-6.5-3.64-1.52-7.63-2.28-11.97-2.28s-8.35,.76-12.03,2.28c-3.69,1.52-6.9,3.69-9.62,6.5-2.72,2.81-4.84,6.09-6.36,9.82-1.52,3.73-2.28,7.91-2.28,12.52s.76,8.78,2.28,12.52c1.52,3.73,3.64,7.01,6.36,9.82,2.72,2.81,5.92,4.98,9.62,6.5,3.69,1.52,7.7,2.28,12.03,2.28Z"/>
    <path class="cls-1" d="M352.9,98.5V1.66h47.31c12.17,0,21.33,2.31,27.46,6.92,6.13,4.61,9.2,10.7,9.2,18.26,0,5.07-1.25,9.48-3.74,13.21-2.49,3.74-5.93,6.62-10.31,8.65-4.38,2.03-9.34,3.04-14.87,3.04l2.63-5.81c6.09,0,11.46,1.02,16.12,3.04,4.66,2.03,8.32,4.98,11,8.85,2.67,3.87,4.01,8.62,4.01,14.25,0,8.3-3.28,14.78-9.82,19.44-6.55,4.66-16.19,6.99-28.91,6.99h-50.08Zm22.27-16.88h26.28c5.72,0,10.1-.97,13.14-2.91,3.04-1.94,4.57-4.93,4.57-8.99s-1.52-7.19-4.57-9.13c-3.04-1.94-7.42-2.9-13.14-2.9h-27.94v-16.32h23.93c5.44,0,9.62-.94,12.52-2.84,2.9-1.89,4.36-4.77,4.36-8.65s-1.45-6.73-4.36-8.58c-2.91-1.84-7.08-2.77-12.52-2.77h-22.27v63.08Z"/>
    <path class="cls-1" d="M459.84,98.5L502.86,1.66h22.13l43.44,96.84h-23.52L509.36,13h8.99l-35.55,85.49h-22.96Zm21.72-20.75l5.67-17.02h50.08l5.81,17.02h-61.56Z"/>
    <path class="cls-1" d="M592.36,98.5V1.66h22.55V80.24h48.28v18.26h-70.83Z"/>
  </g>
  <g>
    <path class="cls-2" d="M26.84,185.32c-3.6,0-6.92-.59-9.94-1.77-3.03-1.18-5.66-2.86-7.91-5.04-2.25-2.18-4-4.72-5.24-7.61-1.25-2.89-1.87-6.1-1.87-9.61s.62-6.72,1.87-9.61c1.25-2.89,3-5.43,5.27-7.61,2.27-2.18,4.92-3.86,7.94-5.04,3.03-1.18,6.34-1.77,9.94-1.77,3.83,0,7.32,.66,10.48,1.97,3.16,1.31,5.83,3.26,8.01,5.84l-5.61,5.27c-1.73-1.82-3.65-3.19-5.74-4.11-2.09-.91-4.34-1.37-6.74-1.37s-4.68,.4-6.71,1.2c-2.02,.8-3.78,1.94-5.27,3.4-1.49,1.47-2.66,3.2-3.5,5.21-.85,2-1.27,4.2-1.27,6.61s.42,4.61,1.27,6.61c.84,2,2.01,3.74,3.5,5.21,1.49,1.47,3.25,2.6,5.27,3.4,2.02,.8,4.26,1.2,6.71,1.2s4.65-.46,6.74-1.37c2.09-.91,4-2.3,5.74-4.17l5.61,5.27c-2.18,2.58-4.85,4.54-8.01,5.87-3.16,1.33-6.67,2-10.55,2Z"/>
    <path class="cls-2" d="M84.64,185.32c-3.6,0-6.95-.6-10.04-1.8-3.09-1.2-5.77-2.89-8.04-5.07-2.27-2.18-4.03-4.73-5.27-7.64-1.25-2.91-1.87-6.08-1.87-9.51s.62-6.66,1.87-9.58c1.25-2.91,3-5.45,5.27-7.61,2.27-2.16,4.94-3.84,8.01-5.04,3.07-1.2,6.43-1.8,10.08-1.8s6.94,.59,10.01,1.77c3.07,1.18,5.73,2.85,7.98,5.01,2.25,2.16,3.99,4.71,5.24,7.64,1.25,2.94,1.87,6.14,1.87,9.61s-.62,6.66-1.87,9.58c-1.25,2.92-2.99,5.46-5.24,7.64-2.25,2.18-4.91,3.86-7.98,5.04-3.07,1.18-6.41,1.77-10.01,1.77Zm0-7.61c2.36,0,4.53-.4,6.51-1.2,1.98-.8,3.7-1.94,5.17-3.4,1.47-1.47,2.61-3.2,3.44-5.21,.82-2,1.23-4.21,1.23-6.61s-.4-4.61-1.2-6.61c-.8-2-1.95-3.74-3.44-5.21-1.49-1.47-3.23-2.6-5.21-3.4-1.98-.8-4.15-1.2-6.51-1.2s-4.55,.4-6.57,1.2c-2.02,.8-3.77,1.95-5.24,3.44-1.47,1.49-2.63,3.23-3.47,5.21-.85,1.98-1.27,4.17-1.27,6.57s.42,4.54,1.27,6.54c.84,2,2,3.75,3.47,5.24,1.47,1.49,3.21,2.64,5.24,3.44,2.02,.8,4.22,1.2,6.57,1.2Z"/>
    <path class="cls-2" d="M128.96,184.65v-46.72h7.14l29.3,36.04h-3.54v-36.04h8.54v46.72h-7.14l-29.23-36.04h3.54v36.04h-8.61Z"/>
    <path class="cls-2" d="M207.52,185.32c-3.65,0-7.13-.52-10.45-1.57-3.32-1.04-5.97-2.39-7.98-4.04l3-6.74c1.87,1.47,4.18,2.69,6.94,3.67,2.76,.98,5.58,1.47,8.48,1.47,2.45,0,4.43-.27,5.94-.8,1.51-.53,2.63-1.26,3.34-2.17,.71-.91,1.07-1.95,1.07-3.1,0-1.42-.51-2.57-1.53-3.44-1.02-.87-2.35-1.56-3.97-2.07-1.63-.51-3.43-.98-5.41-1.4-1.98-.42-3.96-.94-5.94-1.57-1.98-.62-3.79-1.41-5.44-2.37-1.65-.96-2.97-2.24-3.97-3.84-1-1.6-1.5-3.65-1.5-6.14s.68-4.86,2.03-6.97c1.36-2.11,3.43-3.8,6.21-5.07,2.78-1.27,6.31-1.9,10.58-1.9,2.8,0,5.58,.36,8.34,1.07,2.76,.71,5.16,1.74,7.21,3.07l-2.74,6.74c-2.09-1.25-4.25-2.17-6.48-2.77-2.23-.6-4.36-.9-6.41-.9-2.36,0-4.29,.29-5.81,.87-1.51,.58-2.61,1.35-3.3,2.3-.69,.96-1.04,2.01-1.04,3.17,0,1.42,.5,2.57,1.5,3.44,1,.87,2.31,1.55,3.94,2.04,1.62,.49,3.44,.96,5.44,1.4,2,.45,3.98,.97,5.94,1.57,1.96,.6,3.76,1.38,5.41,2.34,1.65,.96,2.97,2.23,3.97,3.8,1,1.58,1.5,3.59,1.5,6.04s-.68,4.8-2.04,6.91c-1.36,2.11-3.44,3.8-6.24,5.07-2.8,1.27-6.34,1.9-10.61,1.9Z"/>
    <path class="cls-2" d="M253.84,184.65v-39.38h-15.49v-7.34h39.65v7.34h-15.49v39.38h-8.68Z"/>
    <path class="cls-2" d="M294.56,184.65v-46.72h19.22c4.14,0,7.69,.66,10.65,1.97,2.96,1.31,5.24,3.22,6.84,5.71,1.6,2.49,2.4,5.47,2.4,8.94s-.8,6.36-2.4,8.81c-1.6,2.45-3.88,4.34-6.84,5.67-2.96,1.33-6.51,2-10.65,2h-14.35l3.8-3.87v17.49h-8.68Zm8.68-16.55l-3.8-4.2h13.95c3.83,0,6.71-.82,8.64-2.47,1.94-1.65,2.9-3.94,2.9-6.88s-.97-5.22-2.9-6.84c-1.94-1.62-4.82-2.44-8.64-2.44h-13.95l3.8-4.27v27.1Zm21.89,16.55l-11.81-16.95h9.28l11.88,16.95h-9.34Z"/>
    <path class="cls-2" d="M373.38,185.32c-6.36,0-11.36-1.8-14.98-5.41-3.63-3.6-5.44-8.83-5.44-15.69v-26.3h8.68v26.03c0,4.81,1.04,8.3,3.1,10.48,2.07,2.18,4.99,3.27,8.78,3.27s6.7-1.09,8.74-3.27c2.05-2.18,3.07-5.67,3.07-10.48v-26.03h8.54v26.3c0,6.85-1.81,12.08-5.44,15.69-3.63,3.6-8.64,5.41-15.05,5.41Z"/>
    <path class="cls-2" d="M437.66,185.32c-3.6,0-6.92-.59-9.94-1.77-3.03-1.18-5.66-2.86-7.91-5.04-2.25-2.18-4-4.72-5.24-7.61-1.25-2.89-1.87-6.1-1.87-9.61s.62-6.72,1.87-9.61c1.25-2.89,3-5.43,5.27-7.61,2.27-2.18,4.92-3.86,7.94-5.04,3.03-1.18,6.34-1.77,9.94-1.77,3.83,0,7.32,.66,10.48,1.97,3.16,1.31,5.83,3.26,8.01,5.84l-5.61,5.27c-1.73-1.82-3.65-3.19-5.74-4.11-2.09-.91-4.34-1.37-6.74-1.37s-4.68,.4-6.71,1.2c-2.02,.8-3.78,1.94-5.27,3.4-1.49,1.47-2.66,3.2-3.5,5.21-.85,2-1.27,4.2-1.27,6.61s.42,4.61,1.27,6.61c.84,2,2.01,3.74,3.5,5.21,1.49,1.47,3.25,2.6,5.27,3.4,2.02,.8,4.26,1.2,6.71,1.2s4.65-.46,6.74-1.37c2.09-.91,4-2.3,5.74-4.17l5.61,5.27c-2.18,2.58-4.85,4.54-8.01,5.87s-6.67,2-10.55,2Z"/>
    <path class="cls-2" d="M483.51,184.65v-39.38h-15.49v-7.34h39.65v7.34h-15.49v39.38h-8.68Z"/>
    <path class="cls-2" d="M524.23,184.65v-46.72h8.68v46.72h-8.68Z"/>
    <path class="cls-2" d="M577.42,185.32c-3.6,0-6.95-.6-10.04-1.8-3.09-1.2-5.77-2.89-8.04-5.07-2.27-2.18-4.03-4.73-5.27-7.64-1.25-2.91-1.87-6.08-1.87-9.51s.62-6.66,1.87-9.58c1.25-2.91,3-5.45,5.27-7.61,2.27-2.16,4.94-3.84,8.01-5.04,3.07-1.2,6.43-1.8,10.08-1.8s6.94,.59,10.01,1.77c3.07,1.18,5.73,2.85,7.98,5.01,2.25,2.16,3.99,4.71,5.24,7.64,1.25,2.94,1.87,6.14,1.87,9.61s-.62,6.66-1.87,9.58c-1.25,2.92-2.99,5.46-5.24,7.64-2.25,2.18-4.91,3.86-7.98,5.04-3.07,1.18-6.41,1.77-10.01,1.77Zm0-7.61c2.36,0,4.53-.4,6.51-1.2,1.98-.8,3.7-1.94,5.17-3.4,1.47-1.47,2.61-3.2,3.44-5.21,.82-2,1.23-4.21,1.23-6.61s-.4-4.61-1.2-6.61c-.8-2-1.95-3.74-3.44-5.21-1.49-1.47-3.23-2.6-5.21-3.4-1.98-.8-4.15-1.2-6.51-1.2s-4.55,.4-6.57,1.2c-2.02,.8-3.77,1.95-5.24,3.44-1.47,1.49-2.63,3.23-3.47,5.21-.85,1.98-1.27,4.17-1.27,6.57s.42,4.54,1.27,6.54c.84,2,2,3.75,3.47,5.24,1.47,1.49,3.21,2.64,5.24,3.44,2.02,.8,4.22,1.2,6.57,1.2Z"/>
    <path class="cls-2" d="M621.74,184.65v-46.72h7.14l29.3,36.04h-3.54v-36.04h8.54v46.72h-7.14l-29.23-36.04h3.54v36.04h-8.61Z"/>
  </g>
</svg>